/* XPM */
static char *_110_w037_n003_5A_p139_5__1__removebg_preview1676576629[] = {
/* columns rows colors chars-per-pixel */
"40 40 171 2 ",
"   c None",
".  c #025B5E",
"X  c #015E61",
"o  c #065F68",
"O  c #0A5E68",
"+  c #0B5C66",
"@  c #155868",
"#  c #155F74",
"$  c #27547C",
"%  c #026166",
"&  c #02656A",
"*  c #01686F",
"=  c #0D6777",
"-  c #016B73",
";  c #026F79",
":  c #146376",
">  c #01727C",
",  c #7E3E9F",
"<  c #28668A",
"1  c #336085",
"2  c #2C6092",
"3  c #3C6BA1",
"4  c #3F71A2",
"5  c #504C85",
"6  c #44549B",
"7  c #5A559F",
"8  c #426099",
"9  c #6144AE",
"0  c #644BB3",
"q  c #6B4CB7",
"w  c #6E4EBD",
"e  c #7A4AB8",
"r  c #6E50BE",
"t  c #6A5FB2",
"y  c #7055B6",
"u  c #7050BF",
"i  c #7D5DB0",
"p  c #5169B0",
"a  c #6465BB",
"s  c #6C4CC3",
"d  c #7453C2",
"f  c #7A5BC5",
"g  c #7451CA",
"h  c #7956C9",
"j  c #7E5DCA",
"k  c #7D54D7",
"l  c #7E58D7",
"z  c #6D6DC6",
"x  c #7F60C9",
"c  c #716FC8",
"v  c #7F65C2",
"b  c #746BD0",
"n  c #7F55E1",
"m  c #8E239B",
"M  c #93259E",
"N  c #8D3C9D",
"B  c #9627A2",
"V  c #9A25A4",
"C  c #9C29A7",
"Z  c #9B31A3",
"A  c #973AA6",
"S  c #A42DAE",
"D  c #A234AC",
"F  c #A43AAB",
"G  c #A72EB1",
"H  c #AB33B6",
"J  c #AD3FB1",
"K  c #AF3CBB",
"L  c #A635B2",
"P  c #8C49A6",
"I  c #9640A7",
"U  c #9741B2",
"Y  c #934AB7",
"T  c #A640AE",
"R  c #A347B0",
"E  c #AD41B2",
"W  c #A94ABA",
"Q  c #9056C8",
"!  c #9C58CB",
"~  c #825ED4",
"^  c #845DDA",
"/  c #8959D8",
"(  c #A841C1",
")  c #BD4BCB",
"_  c #B74AC5",
"`  c #BD53C6",
"'  c #BE53C9",
"]  c #A45ADB",
"[  c #AA5AD4",
"{  c #B35CD9",
"}  c #8569C5",
"|  c #8566CE",
" . c #8D72CE",
".. c #8B66DD",
"X. c #8D6DDC",
"o. c #8868D8",
"O. c #8F73D3",
"+. c #987CD6",
"@. c #A160D5",
"#. c #A869DB",
"$. c #8156E2",
"%. c #8459E3",
"&. c #885EE5",
"*. c #8760E3",
"=. c #8D64E4",
"-. c #8E69E1",
";. c #9167E6",
":. c #9269E5",
">. c #956CE9",
",. c #9572E3",
"<. c #9B75E6",
"1. c #9E7AE7",
"2. c #9C75EA",
"3. c #9D7AEA",
"4. c #A17DEA",
"5. c #C04BCC",
"6. c #C357CB",
"7. c #C459CD",
"8. c #C454D1",
"9. c #C75AD2",
"0. c #CA5ED5",
"q. c #CB5FD8",
"w. c #CC60D8",
"e. c #13A8B8",
"r. c #09BABF",
"t. c #0AB6BD",
"y. c #0CBBC1",
"u. c #419AC4",
"i. c #718BC8",
"p. c #0DC9CB",
"a. c #11CBCD",
"s. c #15C2C9",
"d. c #14D8D7",
"f. c #808FD2",
"g. c #A189D8",
"h. c #A387DE",
"j. c #AA91DF",
"k. c #AB98DB",
"l. c #9F82E5",
"z. c #A286E4",
"x. c #A481ED",
"c. c #A883EE",
"v. c #AC8CED",
"b. c #A78AE5",
"n. c #AA92E5",
"m. c #B29BEF",
"M. c #A788F2",
"N. c #AD8EF3",
"B. c #A886F1",
"V. c #AD97F1",
"C. c #B293F2",
"Z. c #B69BF6",
"A. c #B69BF9",
"S. c #B89DF9",
"D. c #BBA3F9",
"F. c #BDA0F2",
"G. c #C1A4F5",
"H. c #C5ABF5",
"J. c #C9ACFA",
"K. c #C1A9FA",
"L. c #C7B0F2",
"P. c #CDB4FB",
"I. c #CFBBFB",
"U. c #CBB8F9",
"Y. c #D2BAFD",
"T. c #D8BFFF",
"R. c #D0BBF6",
"E. c #D4C4FE",
"W. c #D9C2FE",
"Q. c #D6C9FF",
"!. c #DBCBFD",
/* pixels */
"                                                                                ",
"                                                                                ",
"                                                                                ",
"                                P.                                              ",
"                              T.Y.                                              ",
"                              T.T.S.                                            ",
"                            W.T.T.D.                                            ",
"                            W.T.W.D.Z.                                          ",
"                            T.T.!.D.A.Z.        R.!.                            ",
"                          W.T.T.E.n.1.v.      H.R.Q.                            ",
"                          T.T.J.C. .d f       L.E.Q.                            ",
"                        !.T.J.4.<.O.w d r   H.L.!.E.                            ",
"                        F.C.B.;.>.O.s u r   H.E.Q.E.E.                          ",
"                        ;.>.c.;.*.O.w u s v v l.I.E.E.                          ",
"                        :.;.4.&.%.v.+.f q 9 q ,.Z.U.m.                          ",
"                          =.&.%.>.P.T.L.g.y h 2.l.3.                            ",
"                          %.%.n M.P.W.T.!.k.o.<.4.X.                            ",
"                          %.n >.A.P.W.W.G.z.<.<.3...      4.b.                  ",
"                          %.n M.z.h.W.P.2.4.1.<.3.o.    3...q                   ",
"                  c.G.z.  %.&.O.d u j.c.:.2.1.<.,.^   C.:.h 9                   ",
"                    :.| j ^ k g u u h :.:.>.3.<.-.  D.N.;.q 9                   ",
"                    ;.j j o.n g u u d ;.b X.2.<.X.v.S.N.~ 9 9                   ",
"                    X.~ d l $.k u u d -.3 < c ,.,.V.S.N.d w                     ",
"                ; o a ..g g $.n g r u X.p % : z 4 i.S.N...;.                    ",
"                > * 8 ..w s n n l Q ! @.z o + 1 : i.A.4.-.  2 : & -             ",
"                  > = 6 w s / ] { 9.w.w.@.7 , A R #.c.;.g 0 0 $ X -             ",
"                  > > 1 Y Y [ 0.7.' ' 0.8.H S H H H ] / e q 6 o &               ",
"                      R J F ' 9.7.7.' 9.q.L M M C G ( W F , #                   ",
"                      E Z Z ` 9.7.7.6.7.0.K m M B S D J E N @ -                 ",
"                  * : I F Z ' 0.9.6.' w.8.K B m B C Z J E A % &                 ",
"                % . X 5 I P _ 9.q.w.w.9.) D V V V     A i                       ",
"              ; * & &   e.s.  ) 8.9.8.) } u.t           s.                      ",
"                        r.a.      )       d.p.                                  ",
"                        y.                a.y.                                  ",
"                                          t.                                    ",
"                                                                                ",
"                                                                                ",
"                                                                                ",
"                                                                                ",
"                                                                                "
};
