/* XPM */
static char *istockphoto_1337267446_612x612_removebg_preview1676150700[] = {
/* columns rows colors chars-per-pixel */
"50 50 181 2 ",
"   c None",
".  c #F76C2B",
"X  c #F46B2F",
"o  c #F56D2C",
"O  c #F56E2C",
"+  c #F46E2E",
"@  c #F86C2C",
"#  c #F86C2D",
"$  c #F86D2F",
"%  c #F96F2E",
"&  c #FA6F2E",
"*  c #FB7F27",
"=  c #F0762A",
"-  c #F6762B",
";  c #F9702C",
":  c #F8702D",
">  c #F9702D",
",  c #F9702E",
"<  c #F37B2A",
"1  c #F8782B",
"2  c #FA7E28",
"3  c #F86D30",
"4  c #F97130",
"5  c #F88F1F",
"6  c #FD9E17",
"7  c #F4911D",
"8  c #F4911E",
"9  c #FC971B",
"0  c #FD9F1A",
"q  c #FC991E",
"w  c #E5BC08",
"e  c #F9B30F",
"r  c #F2BB0A",
"t  c #F4B80D",
"y  c #FDBE0F",
"u  c #EAA910",
"i  c #EBAC10",
"p  c #F4A415",
"a  c #FCA41A",
"s  c #F6AB1B",
"d  c #FEAD1B",
"f  c #FDB112",
"g  c #FBB713",
"h  c #F68D26",
"j  c #F88E20",
"k  c #FB9120",
"l  c #FB9820",
"z  c #FD9F2E",
"x  c #FA8134",
"c  c #FB9B37",
"v  c #FDA021",
"b  c #FBA93F",
"n  c #FDB33E",
"m  c #EDC304",
"M  c #EFC305",
"N  c #EEC404",
"B  c #F0C605",
"V  c #F0C606",
"C  c #F4C704",
"Z  c #F4C705",
"A  c #F9C507",
"S  c #F9C606",
"D  c #FFC605",
"F  c #FEC606",
"G  c #F3C803",
"H  c #F4C903",
"J  c #F5C905",
"K  c #F6CA04",
"L  c #F5CA06",
"P  c #F9CA03",
"I  c #FACD00",
"U  c #FBCE01",
"Y  c #FACE02",
"T  c #FCCE01",
"R  c #FCCF02",
"E  c #FCCC04",
"W  c #FECE04",
"Q  c #F9C70A",
"!  c #F4C808",
"~  c #FBCF08",
"^  c #FACE0E",
"/  c #FED000",
"(  c #FED001",
")  c #FED101",
"_  c #FFD101",
"`  c #FFD200",
"'  c #FFD201",
"]  c #FED002",
"[  c #FED102",
"{  c #FCD303",
"}  c #FFD202",
"|  c #FFD203",
" . c #FBD600",
".. c #F9D703",
"X. c #FED401",
"o. c #FED502",
"O. c #FED403",
"+. c #FFD305",
"@. c #FED307",
"#. c #F8D705",
"$. c #F3DF06",
"%. c #FBDA01",
"&. c #FADB03",
"*. c #FCDD00",
"=. c #FDDD00",
"-. c #FDDC01",
";. c #FDDD01",
":. c #FCDE05",
">. c #FAD00F",
",. c #FFD30C",
"<. c #F9DB0C",
"1. c #F4C910",
"2. c #F4CA14",
"3. c #F4CA16",
"4. c #F4CB17",
"5. c #F2CA19",
"6. c #F4CB1C",
"7. c #FED619",
"8. c #FDD51F",
"9. c #FDD61F",
"0. c #FED71F",
"q. c #FEDD1F",
"w. c #FAE102",
"e. c #FEE114",
"r. c #EEC823",
"t. c #F3C720",
"y. c #F4CC24",
"u. c #F9C821",
"i. c #FECB27",
"p. c #F5CE29",
"a. c #F5D42B",
"s. c #F9CA35",
"d. c #FCD730",
"f. c #FDD832",
"g. c #FDD834",
"h. c #F5D23B",
"j. c #F1D03C",
"k. c #FEDB38",
"l. c #FAE620",
"z. c #FBE224",
"x. c #FDE029",
"c. c #FCE430",
"v. c #FDE23A",
"b. c #FA8247",
"n. c #FDB444",
"m. c #FDA750",
"M. c #FDA856",
"N. c #FDB962",
"B. c #FDAE77",
"V. c #FCBD7B",
"C. c #F1C54A",
"Z. c #FDDC48",
"A. c #F9DC4E",
"S. c #FDDF58",
"D. c #FDE242",
"F. c #FAEC42",
"G. c #FDE74E",
"H. c #FCE94A",
"J. c #FBE354",
"K. c #FDE058",
"L. c #FDE05B",
"P. c #FEEC5C",
"I. c #FEED5D",
"U. c #FDD776",
"Y. c #FCE063",
"T. c #FDE264",
"R. c #FCEC62",
"E. c #FEEE67",
"W. c #FDE36B",
"Q. c #FCE477",
"!. c #FBE47E",
"~. c #FBE381",
"^. c #FDE581",
"/. c #FDE680",
"(. c #FDE681",
"). c #FDE783",
"_. c #FEE488",
"`. c #FDEA97",
"'. c #FCE999",
"]. c #FDEB9F",
"[. c #FCE9A3",
/* pixels */
"                                                                                                    ",
"                                                                                                    ",
"                                                                                                    ",
"                                                                                                    ",
"                                                                                                    ",
"                                                                                                    ",
"                                                                                                    ",
"                                                                                                    ",
"                                                                                                    ",
"                                      #.} T } } 8.Y.'.(.g.>.j.                                      ",
"                                    &.} } } 8.T.`.(.k.+.8.S.Z.5.                                    ",
"                                  $.O.} S a M.B.m.v 6 0 b u.} U w                                   ",
"                                  w.+.Q 7 O $ O $ $ 3 3 O 7 S } M                                   ",
"                                  l.(.C.                    r } M                                   ",
"                                  F.L.r.                    M } M                                   ",
"                                  <.7.h.                    K T M                                   ",
"                                  s D.f.J B             B J } P u                                   ",
"                                    g O.} } } T T } } } } } E p                                     ",
"                                    < l y W } ^ 4.K ..} W e 5 =                                     ",
"                                        - k 9 s.A.U t q j -                                         ",
"                                            O p.a.G i X                                             ",
"                                                &.C                                                 ",
"                                                =.C                                                 ",
"                                                =.C                                                 ",
"                                                =.C                                                 ",
"                                                =.C                                                 ",
"                                                z.1.                                                ",
"                                                H.6.                                                ",
"                                                :.C                                                 ",
"                                                c.2.                                                ",
"                                                R.y.                                                ",
"                                      U T T T ..I.y.                                                ",
"                                      } } } ,.q.I.y.                                                ",
"                                      F F i.U._.E.y.                                                ",
"                                      2 * x b.c v.2.                                                ",
"                                                =.C                                                 ",
"                                                =.C                                                 ",
"                                    @.d.!.[.(.J.e.!                                                 ",
"                                    Q.[.(.W.K.x.J.y.                                                ",
"                                    V.n.N.n d f v h                                                 ",
"                                    , , , , , , $ ,                                                 ",
"                                                                                                    ",
"                                                                                                    ",
"                                                                                                    ",
"                                                                                                    ",
"                                                                                                    ",
"                                                                                                    ",
"                                                                                                    ",
"                                                                                                    ",
"                                                                                                    "
};
