/* XPM */
static char *da909f5b88d34f7af03a3487577333f61q6HCDqNXtAdgCOt[] = {
/* columns rows colors chars-per-pixel */
"50 50 198 2 ",
"   c None",
".  c #3F1F15",
"X  c #3B3439",
"o  c #4B2414",
"O  c #442A1C",
"+  c #472618",
"@  c #542915",
"#  c #5B2D16",
"$  c #552E1B",
"%  c #4F351F",
"&  c #5C311B",
"*  c #6D2F0E",
"=  c #76330F",
"-  c #64361C",
";  c #6C391B",
":  c #673618",
">  c #7A3711",
",  c #7A3A14",
"<  c #743D1B",
"1  c #793D18",
"2  c #432923",
"3  c #432D29",
"4  c #472C24",
"5  c #46302C",
"6  c #4B342B",
"7  c #4B3422",
"8  c #533523",
"9  c #5B3522",
"0  c #5B3B24",
"q  c #513E2A",
"w  c #573C2A",
"e  c #493531",
"r  c #4B3935",
"t  c #4B3D3B",
"y  c #433C3F",
"u  c #533B34",
"i  c #503731",
"p  c #6B3C22",
"a  c #703F24",
"s  c #774116",
"d  c #7B421C",
"f  c #77401B",
"g  c #5B452B",
"h  c #54433D",
"j  c #5A4636",
"k  c #5C523C",
"l  c #66432C",
"z  c #6A482B",
"x  c #73452A",
"c  c #7B4A2B",
"v  c #794728",
"b  c #6A4E39",
"n  c #774D32",
"m  c #6A5537",
"M  c #7C5539",
"N  c #725B3B",
"B  c #795935",
"V  c #7C6238",
"C  c #7F6A3D",
"Z  c #4D4243",
"A  c #4F494C",
"S  c #4E4748",
"D  c #534543",
"F  c #564847",
"G  c #524B4C",
"H  c #5D4D4A",
"J  c #5B4842",
"K  c #5F5841",
"L  c #514E52",
"P  c #535156",
"I  c #5C5354",
"U  c #54555A",
"Y  c #5A5659",
"T  c #5B595D",
"R  c #57585D",
"E  c #685646",
"W  c #685C5B",
"Q  c #634E44",
"!  c #70694D",
"~  c #756751",
"^  c #5D5D61",
"/  c #625E61",
"(  c #636266",
")  c #63666B",
"_  c #6D6A6C",
"`  c #68666A",
"'  c #736A6A",
"]  c #6C6E72",
"[  c #6F7378",
"{  c #6E7176",
"}  c #737275",
"|  c #72757A",
" . c #77787D",
".. c #84390E",
"X. c #883B0F",
"o. c #923F0E",
"O. c #843C12",
"+. c #95410E",
"@. c #9D430D",
"#. c #8D4D1C",
"$. c #884B14",
"%. c #9A4614",
"&. c #8E5119",
"*. c #985618",
"=. c #A5470C",
"-. c #A7480F",
";. c #AB4A0E",
":. c #B44E0E",
">. c #B84F0D",
",. c #BC510E",
"<. c #A74B12",
"1. c #A15B14",
"2. c #A65019",
"3. c #B55010",
"4. c #BA6B14",
"5. c #844A26",
"6. c #824E2E",
"7. c #894E28",
"8. c #8A532E",
"9. c #85512F",
"0. c #955A25",
"q. c #92552B",
"w. c #9C5B2E",
"e. c #97582D",
"r. c #8A5835",
"t. c #8C5D3B",
"y. c #875635",
"u. c #945C34",
"i. c #9C5E32",
"p. c #A05E30",
"a. c #876D3E",
"s. c #86673C",
"d. c #9C643A",
"f. c #A36335",
"g. c #AD6D3C",
"h. c #A5683B",
"j. c #B7723D",
"k. c #B66931",
"l. c #C4550E",
"z. c #CF7914",
"x. c #C87414",
"c. c #D07915",
"v. c #C0763C",
"b. c #8C6A45",
"n. c #9D6C45",
"m. c #8C7141",
"M. c #987649",
"N. c #997953",
"B. c #A77146",
"V. c #AB7143",
"C. c #A67248",
"Z. c #AA754A",
"A. c #B37341",
"S. c #BA7641",
"D. c #B77947",
"F. c #BD7B45",
"G. c #B47A4A",
"H. c #BC7E4A",
"J. c #A46E43",
"K. c #C27C44",
"L. c #AD8B5D",
"P. c #BD8350",
"I. c #B18A54",
"U. c #B4905C",
"Y. c #BE9D6B",
"T. c #C5834A",
"R. c #CB864B",
"E. c #D28C4F",
"W. c #C38651",
"Q. c #C58952",
"!. c #C98C55",
"~. c #D38E52",
"^. c #CF9259",
"/. c #C0995E",
"(. c #D69255",
"). c #DC9A5C",
"_. c #D69458",
"`. c #E19E5F",
"'. c #CE9B6D",
"]. c #DD9E61",
"[. c #E29F60",
"{. c #DFA062",
"}. c #D5B173",
"|. c #C9A770",
" X c #E5A363",
".X c #797C82",
"XX c #7D8187",
"oX c #808388",
"OX c #8F949A",
"+X c #93979C",
"@X c #888D93",
"#X c #B6AA9C",
"$X c #B8AB9E",
"%X c #B1A496",
"&X c #BDB1A3",
"*X c #C0B4A6",
"=X c #CCC3B4",
"-X c #D0C8B9",
/* pixels */
"                                                                                                    ",
"                                                                                                    ",
"                                                                                                    ",
"                                                                                                    ",
"                                                                                                    ",
"                                  l                                                                 ",
"                                  M                                                                 ",
"                                z N.              b.                                                ",
"                                b.L.    2         N.                                                ",
"                                M.|.n 2 T I e   N.L.                                                ",
"                                M.}.Y.E } +XoXF N.U.                                                ",
"                                n /.}.|.E ] ] ( D y.                                                ",
"                                  s.I.M.u F F F D i 2                                               ",
"                                  4 Q W ( ( ' / ' ' F                                               ",
"                                J ( / W A Z r h u t Z .                                             ",
"                                H Y Z p t.C.P.Q.T.Z.0                                               ",
"                                5 n B.F.F.p.g.Q.[.A.5.                                              ",
"                                - G.S.K.p.o.=.#.A.o.o.                                              ",
"                                9 8.A.).S.< # p t.- -                                               ",
"                              x q.7.g.[.~.w.u.!.'.n.v                                               ",
"                            y.Q.v.e.S.k.h.S.d.g.g.u.v                                               ",
"                        x Z.). XK.2.3.l.<.1 O.X.o.+.,                                               ",
"                      n Q. X X Xj.;.l.l.-.%.l.l.;.>.,.<                                             ",
"                    x (. X X X Xf.;.l.l.o.,.;.X.> X.;.2.d.                                          ",
"                    G. X X X X Xi.=.l.=.....* o.>.-...* 6.B.                                        ",
"                  p Q. X X X X Xf.o.l.o.* o.>.l.l.l.,.-., P.M                                       ",
"                  ; R. X X X[.).A...l.=.:.l.l.l.l.l.l.l.%.H.d.                  u u                 ",
"                  & j.`. X X_.F.E.a @.l.l.l.l.l.l.l.l.l.%.Q.B.            6 H _ | } u               ",
"                    q.E. X[.V.A.`.p...;.l.l.l.l.l.l.l.:.5.!.t.          e _ | .X| .X'               ",
"                  5.j.~. X~.7.K. X~.q.> o.:.l.,.,.>.@.1 h.P.r.          t ] [ | | | .XW @           ",
"                  i.). X X[.i.A.). X~.f.$.< > > > , 5.H.B.!.G.          t ] | | | } ) ] w @         ",
"                  p.G.Z.n.B.q.6.R.`. X[.(.K.g.g.D.R.~.G.9.).W.9         r ] | ] / G t t e o         ",
"                p x E I Z y e $ c G.!.^.^.R.K.).{.).G.v 5.).B.t.d.o @ # u ( Y Z r Z A U A .         ",
"                2 Z A Y P A X 9 1.1.*.*.&.&.&.0.0.0.&.s f u.x r.a - f 1 6 y t A P U U U P 5         ",
"                X y } OX.X[ ^ h 4.z.z.z.z.c.z.x.4.*.$.: $ & x x 9.v & @ 3 L U U U U U U U t         ",
"                3 T XX+XXX| ( D s &.*.*.*.*.$.s < ; < ; y.9.i.J.u.G.    r U U U U U U U U Z         ",
"                2 U .XOXXX| ) A j j 8 + @ - ; f s < ; & f.g.f._.8.n +   3 P U U U U U U R Z         ",
"                  A [ @XoX| ) P 8 & : f d f f & 0 g k k 7.P.v M H Z       A U U U U U P S 5         ",
"                  t ] | [ ^ F h $ d f : & % 7 g E ! ! k q j U |  .u       t R U L S t 3             ",
"                o 4 T T F t.G.P.p $ 7 O + O 7 k m K k e S U ( W u         2 t e 3                   ",
"          o # : < - Z b G. XH.D.l 0 q +     O g q q q + 2 e 5                                       ",
"          # d f ; $ & Q.A.V.c & s.a.m +     % V s.a.s.                                              ",
"          o # o       8.x   8 z z g O         g C N l %                                             ",
"                            g C a.a.V w       N I.a.a.m.V                                           ",
"                        -X&XE m N N N b #X-X%Xm k N V m m ~ =X=X                                    ",
"                        =X=X&X#X#X$X$X&X=X=X=X$X%X%X#X#X$X*X=X-X=X                                  ",
"                                                                                                    ",
"                                                                                                    ",
"                                                                                                    ",
"                                                                                                    "
};
