/* XPM */
static char *_6591ccc631f47f7a83239330120825emwMSIaEeB4S6becB[] = {
/* columns rows colors chars-per-pixel */
"50 50 18 1 ",
"  c #080709",
". c #0C0B0D",
"X c #0F0B10",
"o c #120D14",
"O c #141414",
"+ c #191717",
"@ c #1A1817",
"# c #181718",
"$ c #1C1B1C",
"% c #201E1E",
"& c #26201F",
"* c #211E21",
"= c #232223",
"- c #2B2525",
"; c #272628",
": c #282728",
"> c #292929",
", c #302929",
/* pixels */
"$=%%=%#%%$$$+=%=%;#$%%%$#$====$#$*$$$O=%===#$%%$$$",
"&=*%=%O$$$$#O=*%%=O#$%@$O$=%$=%O$$$$$O==%%=#O$$$$O",
"$%=%%%$>>>>>$%%%=$$;>>;>=$%=%%%$>>;>>$=%$=%$;>>;>;",
"%%*%$$%>=;>;$%%=$$$;==>>=$%%$$$%>=;>;$*$=$$#;=;>;=",
"O$###O$>=;;;O@++@@O:=;>;%O$###O$>=;>>O#####O;;;;>;",
"=>>;>;#===%%@,-->:@%==%%$=>>>>>#===$=#>;;;>$$===%$",
";;;;;;O$$$$$O,-,->@@$$$$O=;=>>;O$$$$$#>;==;$##$$$@",
";;=;;;$==%&&O$%&&%+%%%==$=;=>;;$==%%=$>;$$=%===%=$",
"$=;=*=#=%%%%#;>;=>%%%%%%$$;;=%=#=%%%%#%%==;$$==$%%",
"O$$$###%=%$%$>;;>>*%%=%$$O$##$##=%%$%O$$#$$O=%=%$%",
"$=%==&O@++#+#;=;>>$O$@$@O$;=%==O$$$#@O=%%==OO$@O#O",
"==%$%%+=&&=&#=;;==$=;===%$=$$=$#;====#==$%=O=;;=;=",
"$===@%XOOO+O OoXOOX;>;>>=%===$%%>;>>>$===$$$;;>>>=",
"O$@@@@.Oo O+.Xo.OOO;==>>=O@@O#O$>%;>>O@@O$@O;==>>=",
"$&&&&$.Oo #+.oo.OOX==;;=%@&&&&%$=>>==@&&&&=@;;;;==",
"&>,,,:... .. .. ...#$$$@O&,,,>=O#$$$@O,,,,>@O#$#$O",
"%===;$.OOO#OO@O.$.O==%==$@===&%@=%===@===:&+%====%",
"$==**=OOOO#O.@OO$O$%=$$=$$====%@=%$%=O=====+==$$%%",
";>>>>;OOOO@OO@OOOOO===$$$=>>>>>$=%%$%$>>>>>%%%=%$%",
">=*>;;OOOOOOO@O.$OO$$$$$O;;=>>=@$$$$$#>%=>>$$$$$@$",
"=;;>=;OOO.#OO$OO#O##*%$=#=>;>=;O%%%*$#;;>=>$#%$$%$",
"#%$$$OOOOOOO.OO.O.O;>>>>=O$$$$#%>>>>>#$*$%$O>>>>>=",
"$=*%=$OOO.O..OO..oX>;=;;*$=%=%*$;%;;;$%%%%%#;==>>=",
"%%%%=$OOO.OO.OO.OOX>;;;;=$%%%%$*>;>;;$%%%*=$;;;>;=",
"%*=%$%.O..X. OX.X..#%%$$#$==$$=O*$*#$+===$=##%%$$$",
"$%%$$$O%%%%%O%=%==O#$$%%#$$=$$$O===&=O$*$$$O$%%$*$",
"O$$$@##=%%=%O%%%%%O=====$O$$$$O.OOO##..o.OO.==%%=$",
";>>;>;@=%%%%#>>>>>$==$%$$=>>;>>Xoo OO oO OOO*%%%%%",
"=;;;>;@=**$$#>=;>>$$%%$$$=;=;;;OOX.OO OO.OO.%%%%$%",
";;=;;;O#$##@#>=;>>$O$#$#O=>=>;;... O. .. O..O$$##O",
"$=;=$%$>;;;>#===**$;>>;>%$===$$OO#O#OO@OO@OO=>>;>=",
"#$$$$@$>==*>O$$$$$O;=;>>%#$$$$$.O#.##.OOOOO$>;=>>=",
"%=%%=%%;=$$;$==%==@;=;>;%%=%%==OO@OOOO#OO#O@;;=>>;",
"%==$%%$%=;==#==$%%@%;=&%%$=%%=$OOOO@O.@OO@O@$;==%%",
"$==$$%O@##$$O=%=$%@@$%$&O$%==@%OOO.$OO$OO@O@@=$$%@",
"O$@#@O@=%===O###@@O>>,,,%O$@@@O.OO.OO.OO.O.O:>>>>=",
"=;;=;=$=%$%=#;;;=>$=>>;;$%;;===.OO.OX OOXXO.&>--;%",
";;;>;;$===$%$>;;>>$O$$$$O=>;>>;O@O.Oo.OOXoO.@%@%$#",
";==;;;O@@@O@O>%=>>%%====%=;%>;;.O...X OX X..%=&==%",
"=;;;==O====%@;>;==$=%%%=$%;;;==$=====O*%%%%O=%%%=$",
"O$#$$#$>>>>-@@$$#$O%==$$$O$$##O$>;>>>O$$$%%O%%=%$%",
"%===%%+=&&&=@%%%==##$@$@O$%%====>=;>>$==&==$#$$$##",
"%*%$%%#=>&==O==$=%#$==$=$$%%$=$$;;;=;$%%$%=#%%%%=$",
"%%=%$%%>>>>>$=%=$%$;;>>>=$=%=$%O$$$+$O=%%$$$;>>>>;",
"#$$$#$$>*>>;@$$$$$#;;=>;=#$$$#@#,,--;+$$$$$#;==>;=",
"#=%$%#$>;>=>@$%%$=O;;;;;=#%%$%$$-,,-;O$%%$%#=>;;;;",
";>>>>;O#$$$$#>>>>>$#$$$$O=>>>;>#%&&%%#>>>>>$#$*$##",
";;*>;;$=%%$=$>%;>;$$%%$=$=;=>;;#%%%%=$>%=>>$$*%*=$",
";;;>;;$==$=%#>;;;;$==%$=$=>;>;;$=%%%%$>;;;;*%%%%%%",
"#%%%#$#==$$=#$=%$$#%=$$=$#$=$#$#=%%%%O*%*$$#=%%%%%"
};
