/* XPM */
static char *_982257_removebg_preview_copy1676143159[] = {
/* columns rows colors chars-per-pixel */
"50 50 51 1 ",
"  c None",
". c #454545",
"X c #4A4A4A",
"o c #535253",
"O c gray36",
"+ c #636363",
"@ c #666867",
"# c #6D6D6D",
"$ c #6E706E",
"% c #757575",
"& c #7C7D7C",
"* c #7F807F",
"= c #80847F",
"- c #858585",
"; c #878886",
": c #8B8C8B",
"> c #949494",
", c #989697",
"< c #9C9C9C",
"1 c #A09F9F",
"2 c #9DA29E",
"3 c #A19FA0",
"4 c #A4A4A4",
"5 c #A8A7A7",
"6 c #A8A7A8",
"7 c #ABABAB",
"8 c #B0AFAF",
"9 c #B0AFB0",
"0 c #B4B4B4",
"q c #BCBCBC",
"w c #C0BFC0",
"e c #C4C3C4",
"r c #C8C6C7",
"t c #C9C7C8",
"y c #CCCBCB",
"u c #D0CFCF",
"i c #D3D3D3",
"p c #D9D7D8",
"a c #D7D8D8",
"s c #DBDBDB",
"d c #E0DEDF",
"f c #E4E4E4",
"g c #E8E7E7",
"h c #E8E7E8",
"j c #EBEBEB",
"k c #F0EFEF",
"l c #F1EFF0",
"z c #F4F3F4",
"x c #F8F6F7",
"c c #F9F7F8",
"v c #FEFDFE",
/* pixels */
"                                                  ",
"                                                  ",
"                                                  ",
"                                                  ",
"                                                  ",
"                                                  ",
"                                                  ",
"                         &>,;                     ",
"                       ,yjxcji<                   ",
"                      7xvvvvvvg0                  ",
"                     jvvvvvvvvg97                 ",
"                    evvvvvvvvvv7e;                ",
"                   %cvvvvvvvvvvi07                ",
"                   scsvvvzxvvvvh6e                ",
"                  7v4Osvs%,vvvvz6y%               ",
"                  dz#Xrc;.+vvvvcea;               ",
"                 3vz#osfO.,vvvvces:               ",
"       <wuq      tvve8csoXwvvvvxed,               ",
"      qcvvv0    &hvvvvvz30vvvvvvjf,               ",
"     :zvvvvz,   >cvvvvvvvvlfshvvjg2               ",
"     0vvvvvvf&><0vvvvvvvcq7qq7evjg2               ",
"     ycjvvscva,8yvvvvsqviqcvvvqygs4               ",
"    &hgqvc6zvvi2svvvvfrv0fvvvvj,<t4               ",
"    ,zzscz5zvvz5hvvvvvvc6jvvclve2f5               ",
"    0vk0zz4jfvk4zvvvvvvj6zcvh0cvea4               ",
"    uvz6jz4g6 f5zvvvvvvs0valz4jvxg4               ",
"   ;fcc6fk4f7  5zvvvvvvqrcefv7svxg5               ",
"   4hvv0ij4f0ts6xvvvvvc6szsavtqvch7o              ",
"   &6szqef4fqed5xkavvvs7gziqvjrxcjq$              ",
"      ;:6g4ae0f5zzacvvy<qyy2hzqflie>              ",
"      =>0h6ii4f4kvqkvvvaq>-*ag0ej6y6,             ",
"      O1gh9tfqf6edqavvvzje-<ddq5k5u4r             ",
"       ;0q>qjei07ea0vvvvvi%24;:-g9t4a4            ",
"           4r,9q70j5kvvvvcsii;:wje09rs:           ",
"            #-5t46z8icvlzvvzzq<0wq2t9wq*          ",
"             -ai42gyqkvutvvvcvhtq6=t2e<q*         ",
"             &60<4uj4fxhivvcqzvzffqrqqy2q;        ",
"                $6qzqeggezvv7avvzjfwy2sy<q4       ",
"                 66js4ff2fvvt0vjevcqteefi2qq:     ",
"                 24aj7tg7ycvg4jz4hvj0f9ehs76uw<#  ",
"                 :0thu4gw0jzj2akqqvv8rs2ihg7%ui&  ",
"                  eefh7ea4fgj8wgs4zvt<fy<st%*5:   ",
"                  6tay7:s224qe7ggtyi<2fht>& O+    ",
"                   :- $:7iq;O>,ffs>%%4qtw&        ",
"                       24y;   #rsq$               ",
"                       @:&     %-                 ",
"                                                  ",
"                                                  ",
"                                                  ",
"                                                  "
};
