/* XPM */
static char *_43fe5c41c0749f2e8df435b307c4e77UvkXVTqbn15Q4U8g[] = {
/* columns rows colors chars-per-pixel */
"50 50 256 2 ",
"   c #162D38",
".  c #1B3839",
"X  c #122D30",
"o  c #243A3A",
"O  c #363D3F",
"+  c #0B2623",
"@  c #18470F",
"#  c #375519",
"$  c #294C14",
"%  c #097418",
"&  c #376B1A",
"*  c #055A28",
"=  c #075C37",
"-  c #174E38",
";  c #344C2B",
":  c #385727",
">  c #294639",
",  c #344B37",
"<  c #395637",
"1  c #2A4E2E",
"2  c #086927",
"3  c #047B27",
"4  c #096439",
"5  c #19663A",
"6  c #117731",
"7  c #377B28",
"8  c #296739",
"9  c #386639",
"0  c #25773A",
"q  c #33702E",
"w  c #47651B",
"e  c #57751B",
"r  c #50701A",
"t  c #435B2A",
"y  c #435B37",
"u  c #49662A",
"i  c #546B28",
"p  c #497727",
"a  c #58792A",
"s  c #496536",
"d  c #556B36",
"f  c #587635",
"g  c #477639",
"h  c #667A2B",
"j  c #637B36",
"k  c #70752C",
"l  c #667C1B",
"z  c #193A49",
"x  c #173B58",
"c  c #0D2F4A",
"v  c #233A4C",
"b  c #0E3B66",
"n  c #172D51",
"m  c #194747",
"M  c #06584A",
"N  c #1A5947",
"B  c #1A4856",
"V  c #1A5856",
"C  c #095657",
"Z  c #264746",
"A  c #285848",
"S  c #355845",
"D  c #254857",
"F  c #265656",
"G  c #345350",
"H  c #086646",
"J  c #18684A",
"K  c #087549",
"L  c #187649",
"P  c #086859",
"I  c #186956",
"U  c #0A7658",
"Y  c #177857",
"T  c #276948",
"R  c #376846",
"E  c #287849",
"W  c #367649",
"Q  c #276756",
"!  c #346A56",
"~  c #247B54",
"^  c #247758",
"/  c #347756",
"(  c #114B65",
")  c #265862",
"_  c #365C78",
"`  c #2E516A",
"'  c #176865",
"]  c #067768",
"[  c #177964",
"{  c #047676",
"}  c #0B6B70",
"|  c #296863",
" . c #366869",
".. c #287962",
"X. c #366C71",
"o. c #465B52",
"O. c #446745",
"+. c #467946",
"@. c #567D46",
"#. c #4C6C53",
"$. c #495473",
"%. c #447176",
"&. c #657E43",
"*. c #6F335A",
"=. c #068915",
"-. c #388519",
";. c #329018",
":. c #39A61C",
">. c #3DA504",
",. c #098335",
"<. c #0D8E31",
"1. c #398926",
"2. c #2B8735",
"3. c #348437",
"4. c #2F912E",
"5. c #12A533",
"6. c #35A82C",
"7. c #45891E",
"8. c #49991B",
"9. c #589A1B",
"0. c #708F19",
"q. c #56A81B",
"w. c #54BA1A",
"e. c #4DB213",
"r. c #468724",
"t. c #588728",
"y. c #469725",
"u. c #5A9A27",
"i. c #43963B",
"p. c #558A3A",
"a. c #68872A",
"s. c #748927",
"d. c #6A9529",
"f. c #779729",
"g. c #688535",
"h. c #758836",
"j. c #689731",
"k. c #789635",
"l. c #55A825",
"z. c #56B728",
"x. c #49AA39",
"c. c #4DAB2A",
"v. c #7BA428",
"b. c #6BAD29",
"n. c #66B414",
"m. c #2CD629",
"M. c #59D316",
"N. c #54D00D",
"B. c #73D00E",
"V. c #56EC12",
"C. c #4FCF27",
"Z. c #48EA2A",
"A. c #6ED921",
"S. c #0B8647",
"D. c #19854B",
"F. c #0B8559",
"G. c #15855A",
"H. c #189958",
"J. c #0D9653",
"K. c #278549",
"L. c #3B8A49",
"P. c #239949",
"I. c #298758",
"U. c #398B56",
"Y. c #27955C",
"T. c #379657",
"R. c #369547",
"E. c #15A752",
"W. c #28A55B",
"Q. c #2DAF49",
"!. c #098A66",
"~. c #188967",
"^. c #05956A",
"/. c #139469",
"(. c #189766",
"). c #068A74",
"_. c #099874",
"`. c #179976",
"'. c #1B8C79",
"]. c #258965",
"[. c #269866",
"{. c #2D966F",
"}. c #08A567",
"|. c #07A776",
" X c #18A577",
".X c #07B578",
"XX c #15B677",
"oX c #17AA6A",
"OX c #28A667",
"+X c #38A76B",
"@X c #27B767",
"#X c #26A779",
"$X c #33B171",
"%X c #46874B",
"&X c #568747",
"*X c #47984C",
"=X c #458852",
"-X c #479959",
";X c #569755",
":X c #579548",
">X c #658644",
",X c #68964B",
"<X c #51A455",
"1X c #72AB4E",
"2X c #489A62",
"3X c #4AAC67",
"4X c #0EC477",
"5X c #25C560",
"6X c #869B27",
"7X c #829934",
"8X c #858D38",
"9X c #8BAC2B",
"0X c #87A52A",
"qX c #94AB29",
"wX c #98B72B",
"eX c #87A732",
"rX c #93AD32",
"tX c #9AB735",
"yX c #8BB42E",
"uX c #A5BA29",
"iX c #A4BB35",
"pX c #A3AF1F",
"aX c #8ADA08",
"sX c #A4C52B",
"dX c #B5CA2A",
"fX c #A8C336",
"gX c #B7D132",
"hX c #9ECF1F",
"jX c #C8D82B",
"kX c #C6D12A",
"lX c #D3EB33",
"zX c #EAEF29",
"xX c #88B54F",
"cX c #E5FE44",
"vX c #B3CF42",
"bX c #385A8A",
"nX c #03758C",
"mX c #3A688B",
"MX c #515E87",
"NX c #466F8C",
"BX c #656388",
"VX c #0B9688",
"CX c #2C8F8C",
"ZX c #1BA885",
"AX c #02B886",
"SX c #17B78B",
"DX c #19B894",
"FX c #0FAA8B",
"GX c #38B88A",
"HX c #25B086",
"JX c #0ABFA1",
"KX c #44A88B",
"LX c #03C88C",
"PX c #30C58E",
"IX c #0CD99D",
"UX c #41DA91",
/* pixels */
"@./.=X9 J J L G.F.@.T.R.h.Y.[.+.J I T ~ Y R ;X@X:Xd.C.! MXy.z.9 o.R ,.4 I L w.g _ / w.y._ %.3 6 8.z.",
"U.AXI.9 U K L J.S.%X.X.Xg.|..X+.L F.J G.!.R 3XIX3X9.w.F _ 2.e.< G 5 % = H 5 e.3.` R >.y.D ) 3 2 8.w.",
">X=X&X< 8 9 L F.F.%X<X-Xh.%X=Xg L ~ 8 W W @.,X<Xg.o.NX' nXx.z./ X.I P 4 3 J %.Q ] Y.B.3._ _ = H K !.",
"R T R >XU.:XR > < T I.H.T R ^ ! S S R ,X2X>XW I.E ` MXC { z.B.! bXJ 4 4 3 = ` I } I.B.u.` _ * 4 4 K ",
"~ ^.~ =XAXoXs , S E _.|.I ~.^.^ S A R +XLX{.I.}.~.0 L.3.i.J Y 4 % N  .E :.0 3.2.1.0 K J 2 4 D ) 8.q.",
"T (.L &X[.;X9 A S ^ (. X^ I ~.~ s R s ;X+X,X~ H.G.2.x.M.N.= H 2 =.5 bXU.V.;.1.;.N.% H 4 =.% x ) B.aX",
"G.G.Y W W W %XU.-X+.../ ~ [.(.=X:X;X,XO.O.R Q ^ T 7 1.3.R.0 2 = 4 D.R.K.P.0 -.& q E 4 H 4 K 2.3.4.4.",
"[.}.G.G.|.G.%XHXHX%X`.`.].4X.X=X+XDX-XS G S Y (.I q.B.G  .=.=.* P 6.V.P.nXE B.7 ` Q <.,.{ { M.C.] ] ",
"I.(.G.%XY.R.g.+X3X&X~.].'.XXXX-X<X2X,X, o.S Y (.J y.l.F ) 2.4.N | I.5.I.Y E 2.E ) I 6.6 } ' P.P.E K.",
">X&X&XL.T.Y.W +.=X;X,X;X1X1X1X:X#.%XU.(.G.~ >Xg.j b.n.J [ z.B.! NX} VXU.aX1.P K ' P.B.l.bXmXVXVXn.B.",
";X.X2XY..X}.I _.'.;XGXGXxXUXPX;X`.|./.XX4XY.-XAX-Xt.3.4 U p.l.R / [ ] E 6.0 L K K D.x.L.! X.^.F.*X:X",
"-XSXT.Y..XXXY _.VX;XUXKXxXUXUX<X`.XX(.4X.XY.-XAX=XT { K K Z _ y.A.4.<.K nXJ.Z.m.=.,.nX].aXA.J.5.} { ",
"8X,Xk.^ ~.Y Y ~.'.;XxX1X1X2X;XT.[ ].Y (.~.I.h.h.h.q E N I 8 q q :XK.,.L K.S.Q.P.5 E P.K.j.:XD.S.E 0 ",
"-X.XT./ !.Y [ |.'.-XGXGX2Xo.o./  X`.Q ]._./ 2XAXU.8.C.o.MXl.M.! NXH.J.6.V.R.mX%.*.#.M.c.$.CX5.5.C.C.",
";XAX<XW ^.[ !._.^.-XGXPX;X#.O.! ^.|.Y /..XI.-X.X-Xp 4.A ` i.z.! X.L ,.K.Q.U.I.! , R z.R. ./ ,.6 3.<X",
"&X=X%X+.+.=XL.%X=X:X;X;X2X%.%X=X&X;X=XY Y ^ &X&Xg q.z.H { z.A./ NX[ F.Q $.+.N.3.{ OXA.x.MXCX] ).$.BX",
"F.J.G.-X4X@X>X+X3X=X_.`./..X|.-X3XGX;XS < Z F.}.K -.;.5 I 3.c.^  .Q U T : q 6.2.U I.c.R.Q | I | S #.",
"}.}.D.T.LX@X>XZX$X=X|.|.(.4X.XT.3XDX2XS A Z H..XF.7 c.q.w.H ] 2.5.^ NX-XaX*XVXW.V.P.} U <.S.NXNXC.Z.",
"U F.L g.j.j.f L.&XI.Y ].~.`./.U.&X=X:XW g R Y F.K : 1.:.:.4 M 6 5.^ mXT.V.x.).H.C.4.H K =.6 _ X.m.Z.",
"J L T W /.[.R > Z G..XXX^ Q I J S A R -XoX,XT U N 1.:.F X.4 6 4 U R.C.2.I.K.c.2...~ 3 6 I [ x.z.P ' ",
"J ^.L U.AX Xy , , Y .X.XY !.).Q S A 9 OXLX&XE _.H -.8.m ` 2 3 * H 4.V.2.U E e.7 ` T % 2 M H w.w.M M ",
"T R W @.=X&XR - T I.Y.@XU./ / ! R Q W %XU.>XR ! 8 7.9.N I 4.:.A _ F U | %./ e.q ' ~ c.3.F | H J  .%.",
"&XY.%XA H U J F.!.&X-X-X8X+X2X%X!.^.F.J Y T &XT.@.9.n.- ] :.N.N $.m = V bX/ N.7 ( K.N.:.` ) = M  .%.",
"[.AXY.T ^.!.J !.^.%XLX4X>XAXAXU.^.|.G.Y ^.Q Y.AXU.& L * * 5 L 0 1.6 3 5 L.8 5 N * 4 U./ 1.7 * * P ] ",
"@.=X&XA U U N M H @.*X%Xk =X*X+.!.^.K N J T &X=X@.- U 2 % . M 4.M.5.5.4.q.& M = % 2 ` ! w.b.% % P !.",
"%Xk k j.d.> S f.a.w k kXa.-.i j , o s.6Xo Z k i o Q P g.dXqXm > ~ ~.D.pXdX: c - 6 G.5 . < uXuXt c m ",
"%Xg.h v.f., y yXf.r d.sXt.;.p a t , 6X6X, < a.i > ..} k.zXgXZ z [ VXI.dXjXu c > P.E.8 z < kXkXs c z ",
"fXl.y.l.q.s.h y.u.fXa.+ s.dX9.8.0XuX, v tXwX8.u.uXI.[ g h.g.Q I T I R uXsXg P 8 5 5 8 Y T h g.9 L I ",
",Xb.u.u.u.8Xg.t.u.9Xa.s j k.u.l.f.v.y y 6Xk.u.j.k.ZXFX| x ) #X XF ( A gXgX<XFX].v x Y SX~.z x ^ SX X",
"v k.tX6Xa.iX0Xr a l.b.gXj z k.sX7.;.0.6X# t gXrXo CXZX! G F OX XA B Z dXjX*X X].Z Z ^ XXI.G D ^  X/.",
"s 7XrXd s 6Xs.s.g.g p.9Xa : a f t.d.s.s.a a h j j R ! / {.[.T.P.I.].^ y R L.OX].I.].K.I.I.].].'. X(.",
"y.yXuXo O 0.s.uXf.n s sXr @ ;   7XiX6XeXl.u.o O.uXG D ].HXHX5X5X#XDXVXz x ].DXZXZXDXE.5XW.ZXFXZXIXDX",
"v.f.g.g.g.s s r i k.f < f d.a.d.i r y y f.d.i d l / ..! X...[.OXW ..Q Q Y Q | ^ ].[.E L L.,X<X=X[ ^ ",
"tXf.a.rX9X. > # w sXa   j wX6XtXw # o o 0Xv.e a w $XPX/ D F #X XA B V #XSXQ x V {.ZX! x R jXjXd x B ",
", f.9X; ; rXd.7.r.& p yXd.q.p $ 9.9.k.7X; < wXf.. OXHX! D F [. XF x B [. XQ x V [.`.T B R dXjX@.x m ",
"y h.k.y < eXf.y.p # a 9Xt.y.u t t.y.f.7X: s 0Xa.; A F ! {.].Q B j.tXk.N C &XtXj.m V 0 P.E o.S ! [.G.",
"fXy . rXyX$ : uXa.+ d sXi   h.sXt O $ $ fXrXo O.sXG ( ].GXZX| ( rXcXiXz b ,XlXtXB b I.5XY.D x ..SX X",
"j d s f f i u f s y y O.s t d a s t t i j f d f j A F / +X].A N p.1X&XN C g k.a m N T K.E A V W <X%X",
"  7XtX    wXf.  , uXf + f dX;   l 0.qXwX. > sXv.  | } I.@XW.F B [ VX{ `.FXV b N E.}.I D F ZXFX1XzXkX",
"&.a t.g.f y y i u r.p t.u : d j p 7.u s g.j r p j Q | U.@XW.F m Y `.~.~.'.N m N H.H.T D Q #XZX1XjXuX",
"xX-.2.wX9XX o 0.p =.r.qXu + h.fX7.;.> o wX9X@ # rXiXvX@.D G Y.[.A x A tXtXL.~.Y Z V ^ `.^ S G S v Z ",
"7 d.v.u u s.a.7.p i a t.a d.u # d.d.a.d.& : 7Xa.t.lXcX>X( ) #XSXF ( F jXlX3XFX'.D D {.DX'.G F G x x ",
"7 v.eXt u eXf.7.r.i a y.t.0Xu @ s.f.f.0X1 : wXv.r.eXxXj F ! W.(.Q V Q 7XrXL.`.].Q ! I.OX].F Q S F N ",
"9X, o 0X0Xu u o < qXd o $ @ h qX; o t u 7Xf.8.r.o z B I.@X@X@X@X+XDX`.B ( ..DX XW.oXoX5X+XHXSXZXIX#X",
"j.y < f.d.h a > : v.u 1 : $ a v.; 1 r a f.d.y.p ; Z F E W.Y.@X@X[.#X'.G F ].FX`.Y.W.OXXXW.{.ZX`.ZX`.",
"  6XyXe r wX0Xr p ;.& $ h sXr.;.r w 0XwXl r # & eX].(.A v Z H.(.A x S fXgXT.FX].Z D ^  XI.Z z h.dX6X",
"t t.d.a.g.s s 0.a y.p a u u p p a t.s s 0.a.w p j.`.FXQ v D  X.Xm b D lXlX3XJX`.F x [ SX~.Z b k.lXdX",
"s.7.;.9Xv.  o uXv.:.u.sXs X u r 0XsX.   qX0X=.-.0.L I A N N T I 9 @.s h.k.L.`.Y.< 9 R Y J Z M u s.h ",
", g.j.w : g.f y y t.a r.a h h a.w : k j < < d.t.t o X J (.G.. c 6XzXpX  n M |.H.6XyXu   > /._.m c   ",
"X k.wX$ @ wXf.  > 0.t.<.u.uXf.rX; @ 6X0XX O tXk.@ . . N !.U o c l dX6X  c m |.H.f.eXt c z ~.).- c   "
};
